<svg width="26" height="26" viewBox="0 0 26 26" fill="none" xmlns="http://www.w3.org/2000/svg">
<path d="M24.6719 9.20312L22.7969 7.375C22.375 6.90625 21.625 6.90625 21.2031 7.375L10 18.5781L4.75 13.375C4.32812 12.9062 3.625 12.9062 3.15625 13.375L1.32812 15.2031C0.859375 15.6719 0.859375 16.375 1.32812 16.7969L9.20312 24.6719C9.625 25.1406 10.3281 25.1406 10.75 24.6719L24.625 10.7969C25.0938 10.375 25.0938 9.67188 24.6719 9.20312ZM9.4375 14.1719C9.71875 14.5 10.2344 14.5 10.5156 14.1719L20.2656 4.42188C20.5469 4.14062 20.5469 3.67188 20.2656 3.34375L18.1562 1.23438C17.8281 0.953125 17.3594 0.953125 17.0781 1.23438L10 8.35938L7.375 5.73438C7.09375 5.45312 6.625 5.45312 6.34375 5.73438L4.1875 7.84375C3.90625 8.17188 3.90625 8.64062 4.1875 8.92188L9.4375 14.1719Z" fill="url(#paint0_linear_1217_1529)"/>
<defs>
<linearGradient id="paint0_linear_1217_1529" x1="2.62712" y1="7.54237" x2="24.0341" y2="5.79486" gradientUnits="userSpaceOnUse">
<stop stop-color="#0B5CD6"/>
<stop offset="1" stop-color="#21AEFC"/>
</linearGradient>
</defs>
</svg>
